<svg width="24" height="34" viewBox="0 0 24 34" fill="none" xmlns="http://www.w3.org/2000/svg">
<path d="M11.6991 25.2221C12.4715 25.2221 13.2124 24.8912 13.7586 24.3021C14.3048 23.713 14.6117 22.9141 14.6117 22.081C14.6117 21.2479 14.3048 20.449 13.7586 19.8599C13.2124 19.2708 12.4715 18.9399 11.6991 18.9399C10.9266 18.9399 10.1858 19.2708 9.63954 19.8599C9.09331 20.449 8.78645 21.2479 8.78645 22.081C8.78645 22.9141 9.09331 23.713 9.63954 24.3021C10.1858 24.8912 10.9266 25.2221 11.6991 25.2221ZM20.4369 11.0871C21.2094 11.0871 21.9502 11.4181 22.4965 12.0071C23.0427 12.5962 23.3496 13.3952 23.3496 14.2282V29.9338C23.3496 30.7668 23.0427 31.5658 22.4965 32.1548C21.9502 32.7439 21.2094 33.0749 20.4369 33.0749H2.96121C2.18873 33.0749 1.44789 32.7439 0.901671 32.1548C0.355448 31.5658 0.048584 30.7668 0.048584 29.9338V14.2282C0.048584 13.3952 0.355448 12.5962 0.901671 12.0071C1.44789 11.4181 2.18873 11.0871 2.96121 11.0871H4.41752V7.94602C4.41752 5.86334 5.18468 3.86596 6.55023 2.39328C7.91579 0.920604 9.76788 0.0932617 11.6991 0.0932617C12.6553 0.0932617 13.6022 0.296379 14.4856 0.691018C15.369 1.08566 16.1718 1.66409 16.8479 2.39328C17.5241 3.12248 18.0604 3.98816 18.4263 4.9409C18.7923 5.89364 18.9806 6.91478 18.9806 7.94602V11.0871H20.4369ZM11.6991 3.23437C10.5404 3.23437 9.4291 3.73077 8.60977 4.61438C7.79043 5.49799 7.33014 6.69641 7.33014 7.94602V11.0871H16.068V7.94602C16.068 6.69641 15.6077 5.49799 14.7884 4.61438C13.969 3.73077 12.8578 3.23437 11.6991 3.23437Z" fill="#212427"/>
</svg>
