<svg width="24" height="26" viewBox="0 0 24 26" fill="none" xmlns="http://www.w3.org/2000/svg">
<path d="M11.6991 0.00732422C13.244 0.00732422 14.7257 0.669198 15.8181 1.84734C16.9106 3.02548 17.5243 4.62339 17.5243 6.28953C17.5243 7.95568 16.9106 9.55358 15.8181 10.7317C14.7257 11.9099 13.244 12.5717 11.6991 12.5717C10.1541 12.5717 8.67245 11.9099 7.58 10.7317C6.48756 9.55358 5.87383 7.95568 5.87383 6.28953C5.87383 4.62339 6.48756 3.02548 7.58 1.84734C8.67245 0.669198 10.1541 0.00732422 11.6991 0.00732422ZM11.6991 15.7128C18.136 15.7128 23.3496 18.5241 23.3496 21.9951V25.1362H0.048584V21.9951C0.048584 18.5241 5.26218 15.7128 11.6991 15.7128Z" fill="#212427"/>
</svg>
