<svg width="64" height="59" viewBox="0 0 64 59" fill="none" xmlns="http://www.w3.org/2000/svg">
<path d="M63.25 32.9662V17.8243C63.25 13.3622 61.4774 9.0829 58.3223 5.92773C55.1671 2.77256 50.8878 1 46.4257 1H17.8243C13.3622 1 9.0829 2.77256 5.92773 5.92773C2.77256 9.0829 1 13.3622 1 17.8243V41.3784C1 43.5878 1.43517 45.7755 2.28068 47.8168C3.12618 49.858 4.36545 51.7127 5.92773 53.275C9.0829 56.4301 13.3622 58.2027 17.8243 58.2027H38.8884" stroke="#A1A3AB" stroke-width="1.5" stroke-linecap="round" stroke-linejoin="round"/>
<path d="M1.87488 46.4257L11.0946 35.6581C12.3054 34.4556 13.8945 33.7083 15.593 33.5427C17.2915 33.3771 18.995 33.8035 20.4153 34.7496C21.8355 35.6957 23.5391 36.1221 25.2375 35.9565C26.936 35.791 28.5251 35.0437 29.736 33.8411L37.5761 26.001C39.8288 23.7406 42.8115 22.3541 45.9917 22.0891C49.172 21.8241 52.343 22.6977 54.9388 24.5541L63.25 30.981M18.6992 23.4437C19.4327 23.4393 20.1582 23.2904 20.8342 23.0056C21.5102 22.7208 22.1235 22.3057 22.639 21.7839C23.1546 21.2621 23.5623 20.6438 23.8389 19.9645C24.1155 19.2851 24.2556 18.5579 24.2512 17.8243C24.2468 17.0908 24.098 16.3654 23.8132 15.6894C23.5284 15.0134 23.1132 14.4001 22.5914 13.8845C22.0696 13.369 21.4514 12.9613 20.772 12.6846C20.0926 12.408 19.3654 12.2679 18.6319 12.2723C17.1505 12.2812 15.7333 12.8783 14.6921 13.9321C13.6509 14.9859 13.071 16.4102 13.0799 17.8916C13.0888 19.3731 13.6858 20.7902 14.7397 21.8315C15.7935 22.8727 17.2178 23.4526 18.6992 23.4437Z" stroke="#A1A3AB" stroke-width="1.5" stroke-linecap="round" stroke-linejoin="round"/>
<path d="M54.6932 39.6959V56.5202" stroke="#A1A3AB" stroke-width="1.5" stroke-miterlimit="10" stroke-linecap="round"/>
<path d="M62.4086 46.779L55.7899 40.1603C55.6465 40.015 55.4757 39.8997 55.2874 39.8209C55.0991 39.7422 54.897 39.7017 54.6929 39.7017C54.4888 39.7017 54.2868 39.7422 54.0985 39.8209C53.9101 39.8997 53.7393 40.015 53.596 40.1603L46.9773 46.779" stroke="#A1A3AB" stroke-width="1.5" stroke-linecap="round" stroke-linejoin="round"/>
</svg>
